<mxfile host="app.diagrams.net" modified="2021-12-31T15:53:43.538Z" agent="5.0 (Windows NT 10.0; Win64; x64) AppleWebKit/537.36 (KHTML, like Gecko) Chrome/96.0.4664.110 Safari/537.36" etag="oR1N_soECDsVDMTOE5Om" version="16.0.0" type="github">
  <diagram id="6I0OCvxSQrVGMHxT2VVA" name="Page-1">
    <mxGraphModel dx="1422" dy="772" grid="1" gridSize="10" guides="1" tooltips="1" connect="1" arrows="1" fold="1" page="1" pageScale="1" pageWidth="850" pageHeight="1100" math="0" shadow="0">
      <root>
        <mxCell id="0" />
        <mxCell id="1" parent="0" />
        <mxCell id="dKdSaXE48SgPbhcamS2K-30" value="" style="whiteSpace=wrap;html=1;strokeColor=#0e8088;strokeWidth=1;fillColor=#b0e3e6;fontSize=14;" parent="1" vertex="1">
          <mxGeometry x="184" y="500" width="1075" height="300" as="geometry" />
        </mxCell>
        <mxCell id="dKdSaXE48SgPbhcamS2K-32" value="" style="whiteSpace=wrap;html=1;strokeColor=#10739e;strokeWidth=1;fillColor=#b1ddf0;fontSize=14;container=1;" parent="1" vertex="1">
          <mxGeometry x="184" y="350" width="1075" height="140" as="geometry" />
        </mxCell>
        <mxCell id="fP0p9qHQDeoehx5yg6Lg-8" value="新增" style="rounded=0;whiteSpace=wrap;html=1;fontFamily=Garamond;fontSize=20;fillColor=#ffcd28;strokeColor=#d79b00;gradientColor=#ffa500;" vertex="1" parent="dKdSaXE48SgPbhcamS2K-32">
          <mxGeometry x="106" y="40" width="120" height="60" as="geometry" />
        </mxCell>
        <mxCell id="fP0p9qHQDeoehx5yg6Lg-9" value="修改" style="rounded=0;whiteSpace=wrap;html=1;fontFamily=Garamond;fontSize=20;fillColor=#d5e8d4;strokeColor=#82b366;gradientColor=#97d077;" vertex="1" parent="dKdSaXE48SgPbhcamS2K-32">
          <mxGeometry x="234" y="40" width="120" height="60" as="geometry" />
        </mxCell>
        <mxCell id="fP0p9qHQDeoehx5yg6Lg-10" value="删除" style="rounded=0;whiteSpace=wrap;html=1;fontFamily=Garamond;fontSize=20;fillColor=#f5f5f5;strokeColor=#666666;gradientColor=#b3b3b3;" vertex="1" parent="dKdSaXE48SgPbhcamS2K-32">
          <mxGeometry x="363" y="40" width="120" height="60" as="geometry" />
        </mxCell>
        <mxCell id="fP0p9qHQDeoehx5yg6Lg-11" value="打印" style="rounded=0;whiteSpace=wrap;html=1;fontFamily=Garamond;fontSize=20;fillColor=#fff2cc;gradientColor=#ffd966;strokeColor=#d6b656;" vertex="1" parent="dKdSaXE48SgPbhcamS2K-32">
          <mxGeometry x="491" y="40" width="120" height="60" as="geometry" />
        </mxCell>
        <mxCell id="fP0p9qHQDeoehx5yg6Lg-12" value="定义模板" style="rounded=0;whiteSpace=wrap;html=1;fontFamily=Garamond;fontSize=20;fillColor=#dae8fc;gradientColor=#7ea6e0;strokeColor=#6c8ebf;" vertex="1" parent="dKdSaXE48SgPbhcamS2K-32">
          <mxGeometry x="620" y="40" width="120" height="60" as="geometry" />
        </mxCell>
        <mxCell id="fP0p9qHQDeoehx5yg6Lg-13" value="抄送" style="rounded=0;whiteSpace=wrap;html=1;fontFamily=Garamond;fontSize=20;fillColor=#f8cecc;gradientColor=#ea6b66;strokeColor=#b85450;" vertex="1" parent="dKdSaXE48SgPbhcamS2K-32">
          <mxGeometry x="748" y="40" width="120" height="60" as="geometry" />
        </mxCell>
        <mxCell id="fP0p9qHQDeoehx5yg6Lg-14" value="审核" style="rounded=0;whiteSpace=wrap;html=1;fontFamily=Garamond;fontSize=20;fillColor=#e6d0de;gradientColor=#d5739d;strokeColor=#996185;" vertex="1" parent="dKdSaXE48SgPbhcamS2K-32">
          <mxGeometry x="877" y="40" width="120" height="60" as="geometry" />
        </mxCell>
        <mxCell id="dKdSaXE48SgPbhcamS2K-63" value="Title" style="text;strokeColor=none;fillColor=none;html=1;fontSize=24;fontStyle=1;verticalAlign=middle;align=center;" parent="1" vertex="1">
          <mxGeometry x="50" y="70" width="1590" height="40" as="geometry" />
        </mxCell>
        <mxCell id="fP0p9qHQDeoehx5yg6Lg-2" value="&lt;font style=&quot;font-size: 28px&quot;&gt;钉钉氚云平台&lt;/font&gt;" style="whiteSpace=wrap;html=1;strokeColor=#d6b656;strokeWidth=1;fillColor=#fff2cc;fontSize=14;" vertex="1" parent="1">
          <mxGeometry x="184" y="810" width="1075" height="140" as="geometry" />
        </mxCell>
        <mxCell id="fP0p9qHQDeoehx5yg6Lg-3" value="&lt;font face=&quot;Garamond&quot; style=&quot;font-size: 20px&quot;&gt;会议纪要管理&lt;/font&gt;" style="rounded=0;whiteSpace=wrap;html=1;fontSize=28;fillColor=#dae8fc;strokeColor=#6c8ebf;" vertex="1" parent="1">
          <mxGeometry x="260" y="565" width="120" height="170" as="geometry" />
        </mxCell>
        <mxCell id="fP0p9qHQDeoehx5yg6Lg-4" value="&lt;span style=&quot;font-size: 14.0pt&quot;&gt;会议纪要打印模板设计&lt;/span&gt;" style="rounded=0;whiteSpace=wrap;html=1;fontSize=28;fillColor=#e1d5e7;strokeColor=#9673a6;" vertex="1" parent="1">
          <mxGeometry x="870" y="560" width="120" height="170" as="geometry" />
        </mxCell>
        <mxCell id="fP0p9qHQDeoehx5yg6Lg-5" value="&lt;span&gt;&lt;font style=&quot;font-size: 18.6667px&quot;&gt;会议纪要抄送与审核&lt;/font&gt;&lt;/span&gt;" style="rounded=0;whiteSpace=wrap;html=1;fontSize=28;fillColor=#ffe6cc;strokeColor=#d79b00;" vertex="1" parent="1">
          <mxGeometry x="661.5" y="560" width="120" height="170" as="geometry" />
        </mxCell>
        <mxCell id="fP0p9qHQDeoehx5yg6Lg-6" value="&lt;font style=&quot;font-size: 20px&quot;&gt;参会人员流程节点手签上传&lt;/font&gt;" style="rounded=0;whiteSpace=wrap;html=1;fontSize=28;fillColor=#d5e8d4;strokeColor=#82b366;fontStyle=0" vertex="1" parent="1">
          <mxGeometry x="460" y="565" width="120" height="170" as="geometry" />
        </mxCell>
        <mxCell id="fP0p9qHQDeoehx5yg6Lg-7" value="&lt;span style=&quot;font-size: 14.0pt&quot;&gt;数据权限管理&lt;/span&gt;" style="rounded=0;whiteSpace=wrap;html=1;fontSize=28;fillColor=#f8cecc;strokeColor=#b85450;" vertex="1" parent="1">
          <mxGeometry x="1070" y="560" width="120" height="170" as="geometry" />
        </mxCell>
      </root>
    </mxGraphModel>
  </diagram>
</mxfile>
